<svg xmlns="http://www.w3.org/2000/svg" width="16" height="16" viewBox="0 0 16 16" fill="none">
  <path opacity="0.2" d="M14.5 5V10.5556C14.5 10.6735 14.4532 10.7865 14.3698 10.8698C14.2865 10.9532 14.1735 11 14.0556 11H12.5V7C12.5 6.86739 12.4473 6.74021 12.3536 6.64645C12.2598 6.55268 12.1326 6.5 12 6.5H7.66687C7.55869 6.5 7.45342 6.46491 7.36688 6.4L5.63312 5.1C5.54658 5.03509 5.44131 5 5.33313 5H4V3.5C4 3.36739 4.05268 3.24021 4.14645 3.14645C4.24021 3.05268 4.36739 3 4.5 3H7.33313C7.44131 3 7.54658 3.03509 7.63312 3.1L9.36687 4.4C9.45342 4.46491 9.55869 4.5 9.66687 4.5H14C14.1326 4.5 14.2598 4.55268 14.3536 4.64645C14.4473 4.74021 14.5 4.86739 14.5 5Z" fill="#96F2FF"/>
  <path d="M14 4H9.66687L7.93313 2.7C7.75978 2.57066 7.54941 2.50054 7.33313 2.5H4.5C4.23478 2.5 3.98043 2.60536 3.79289 2.79289C3.60536 2.98043 3.5 3.23478 3.5 3.5V4.5H2.5C2.23478 4.5 1.98043 4.60536 1.79289 4.79289C1.60536 4.98043 1.5 5.23478 1.5 5.5V12.5C1.5 12.7652 1.60536 13.0196 1.79289 13.2071C1.98043 13.3946 2.23478 13.5 2.5 13.5H12.0556C12.306 13.4997 12.546 13.4001 12.723 13.223C12.9001 13.046 12.9997 12.806 13 12.5556V11.5H14.0556C14.306 11.4997 14.546 11.4001 14.723 11.223C14.9001 11.046 14.9997 10.806 15 10.5556V5C15 4.73478 14.8946 4.48043 14.7071 4.29289C14.5196 4.10536 14.2652 4 14 4ZM12 12.5H2.5V5.5H5.33313L7.06687 6.8C7.24022 6.92934 7.45059 6.99946 7.66687 7H12V12.5ZM14 10.5H13V7C13 6.73478 12.8946 6.48043 12.7071 6.29289C12.5196 6.10536 12.2652 6 12 6H7.66687L5.93313 4.7C5.75978 4.57066 5.54941 4.50054 5.33313 4.5H4.5V3.5H7.33313L9.06688 4.8C9.24022 4.92934 9.45059 4.99946 9.66687 5H14V10.5Z" fill="#96F2FF"/>
</svg>